<svg width="86" height="51" viewBox="0 0 86 51" fill="none" xmlns="http://www.w3.org/2000/svg">
<path d="M0 22.8694L2.8758 0L86 9.85987V32.7293L9.85987 50.6688L5.34076 28.621L18.3503 24.9236L0 22.8694Z" fill="#D0DF6A"/>
<g clip-path="url(#clip0_392_12769)">
<path d="M42.0954 38.5971C39.1562 38.5971 36.6051 38.0707 34.4422 37.018C32.3071 35.9375 30.6434 34.4554 29.451 32.5716C28.2864 30.6601 27.7041 28.4576 27.7041 25.9643C27.7041 23.4987 28.1339 21.1994 28.9935 19.0662C29.8808 16.933 31.1286 15.0908 32.7369 13.5394C34.3452 11.9603 36.2723 10.7275 38.5184 9.84099C40.7644 8.95448 43.26 8.51123 46.0052 8.51123C48.7781 8.51123 51.1767 8.95448 53.2009 9.84099C55.2528 10.6998 56.9027 11.9464 58.1505 13.5809L53.3257 17.4871C52.3551 16.3236 51.246 15.4925 49.9982 14.9938C48.7781 14.4952 47.3501 14.2458 45.7141 14.2458C43.9948 14.2458 42.4421 14.5367 41.0556 15.1185C39.6969 15.6726 38.5323 16.4621 37.5617 17.4871C36.5912 18.5121 35.8425 19.7172 35.3157 21.1024C34.7889 22.4598 34.5254 23.942 34.5254 25.5488C34.5254 27.0171 34.8443 28.3053 35.4821 29.4134C36.1199 30.4938 37.0626 31.3388 38.3104 31.9483C39.5859 32.5577 41.1388 32.8625 42.9689 32.8625C44.3554 32.8625 45.6863 32.627 46.9619 32.156C48.2374 31.6851 49.4713 30.9509 50.6637 29.9536L53.2425 35.0649C51.7728 36.2007 50.0675 37.0734 48.1265 37.6829C46.2132 38.2923 44.2028 38.5971 42.0954 38.5971ZM47.3362 34.026L48.4176 28.5615L49.4991 23.097H55.6549L53.2425 35.0649L47.3362 34.026Z" fill="#1F1F1F"/>
<path d="M49.4991 23.097H44.8198L43.7799 28.2291L48.4176 28.5615L49.4991 23.097Z" fill="#1F1F1F"/>
</g>
<defs>
<clipPath id="clip0_392_12769">
<rect width="30.6752" height="30.1274" fill="white" transform="translate(27.6621 8.49048)"/>
</clipPath>
</defs>
</svg>
